<svg width="45" height="32" viewBox="0 0 45 32" fill="none" xmlns="http://www.w3.org/2000/svg">
<path d="M42.7802 5.29373C41.8181 3.63528 40.3871 2.28096 38.6582 1.39234C36.8951 0.465697 34.8683 0 32.5827 0C29.2421 0 26.517 0.950401 24.4071 2.8512C23.6746 3.52124 23.0348 4.28156 22.5024 5.10841C21.9701 4.28156 21.3254 3.52124 20.5928 2.8512C18.483 0.950401 15.7578 0 12.4173 0C10.1268 0 8.09995 0.465697 6.33688 1.39234C4.608 2.28571 3.18192 3.64004 2.21491 5.29373C1.23326 6.97119 0.73999 8.87199 0.73999 11.0009C0.73999 14.6647 1.69234 17.7677 3.59216 20.3006C5.49198 22.8334 8.59322 25.0526 12.9008 26.9534C15.1767 27.956 16.0167 28.3505 19.1863 29.2914L16.3439 30.9403L17.1253 32C23.1129 30.4556 27.7965 28.8589 32.0992 26.9581C36.4068 25.0573 39.508 22.8381 41.4078 20.3053C43.3076 17.7725 44.26 14.6694 44.26 11.0056C44.26 8.87675 43.7667 6.97594 42.7851 5.30324" fill="url(#paint0_linear_364_1239)"/>
<defs>
<linearGradient id="paint0_linear_364_1239" x1="3.32843" y1="22.2109" x2="41.9976" y2="1.62554" gradientUnits="userSpaceOnUse">
<stop offset="0.11" stop-color="#FF4B3D"/>
<stop offset="0.4" stop-color="#FF6276"/>
<stop offset="0.67" stop-color="#FF76A7"/>
<stop offset="0.88" stop-color="#FF82C5"/>
<stop offset="1" stop-color="#FF87D1"/>
</linearGradient>
</defs>
</svg>
